# Blender 3.5.1
# www.blender.org
mtllib Knife.mtl
o Cube
v 0.040000 -1.480000 2.000000
v -0.040000 -1.480000 2.000000
v 0.040000 -1.480000 -2.790000
v 0.040000 -1.270000 -3.000000
v -0.040000 -1.270000 -3.000000
v -0.040000 -1.480000 -2.790000
v -0.200000 0.520000 2.000000
v 0.070000 1.000000 1.000000
v 0.317520 0.850000 1.000000
v -0.317520 0.850000 -3.000000
v -0.317520 0.850000 1.000000
v -0.070000 1.000000 1.000000
v -0.274693 0.600000 -2.425000
v -0.253495 0.476256 -2.476256
v -0.295891 0.723744 -2.476256
v -0.274693 0.600000 -2.775000
v -0.253495 0.476256 -2.723744
v -0.295891 0.723744 -2.723744
v -0.304672 0.775000 -2.600000
v -0.244714 0.425000 -2.600000
v 0.274693 0.600000 -2.425000
v 0.253495 0.476256 -2.476256
v 0.295891 0.723744 -2.476256
v 0.274693 0.600000 -2.775000
v 0.253495 0.476256 -2.723744
v 0.295891 0.723744 -2.723744
v 0.304672 0.775000 -2.600000
v 0.244714 0.425000 -2.600000
v 0.317520 0.850000 -3.000000
v 0.070000 1.000000 -2.850000
v -0.070000 1.000000 -2.850000
v -0.070000 0.200000 2.800000
v -0.420000 0.461070 2.800000
v -0.420000 0.849857 2.800000
v -0.070000 1.000000 2.800000
v -0.164920 0.200000 2.000000
v -0.320000 0.849863 2.000000
v -0.070000 1.000000 2.000000
v 0.420000 0.461070 2.800000
v 0.070000 0.200000 2.800000
v 0.070000 1.000000 2.800000
v 0.420000 0.849857 2.800000
v 0.070000 1.000000 2.000000
v 0.320000 0.849863 2.000000
v -0.070000 0.200000 5.300000
v -0.420000 0.467140 5.300000
v -0.420000 0.847317 5.300000
v -0.070000 1.000000 5.300000
v 0.420000 0.467140 5.300000
v 0.070000 0.200000 5.300000
v 0.070000 1.000000 5.300000
v 0.420000 0.847317 5.300000
v -0.420000 0.849840 3.008333
v -0.070000 1.000000 3.008333
v -0.420000 0.849810 3.216667
v -0.070000 1.000000 3.216667
v -0.420000 0.849766 3.425000
v -0.070000 1.000000 3.425000
v -0.420000 0.849702 3.633333
v -0.070000 1.000000 3.633333
v -0.420000 0.849615 3.841667
v -0.070000 1.000000 3.841667
v -0.420000 0.849496 4.050000
v -0.070000 1.000000 4.050000
v -0.420000 0.849338 4.258334
v -0.070000 1.000000 4.258333
v -0.420000 0.849126 4.466667
v -0.070000 1.000000 4.466667
v -0.420000 0.848845 4.675000
v -0.070000 1.000000 4.675000
v -0.420000 0.848471 4.883333
v -0.070000 1.000000 4.883333
v -0.070000 1.000000 5.091667
v -0.420000 0.847975 5.091667
v 0.420000 0.847975 5.091667
v 0.070000 1.000000 5.091667
v 0.420000 0.848471 4.883333
v 0.070000 1.000000 4.883333
v 0.420000 0.848845 4.675000
v 0.070000 1.000000 4.675000
v 0.420000 0.849126 4.466666
v 0.070000 1.000000 4.466667
v 0.420000 0.849338 4.258333
v 0.070000 1.000000 4.258333
v 0.420000 0.849496 4.050000
v 0.070000 1.000000 4.050000
v 0.420000 0.849615 3.841667
v 0.070000 1.000000 3.841667
v 0.420000 0.849702 3.633333
v 0.070000 1.000000 3.633333
v 0.420000 0.849766 3.425000
v 0.070000 1.000000 3.425000
v 0.420000 0.849810 3.216667
v 0.070000 1.000000 3.216667
v 0.070000 1.000000 3.008333
v 0.420000 0.849840 3.008333
v 0.070000 0.200000 5.091667
v 0.420000 0.466015 5.091667
v 0.070000 0.300000 4.883333
v 0.420000 0.564968 4.883333
v 0.070000 0.300000 4.675000
v 0.420000 0.564315 4.675000
v 0.070000 0.200000 4.466667
v 0.420000 0.463695 4.466666
v 0.070000 0.200000 4.258333
v 0.420000 0.463297 4.258333
v 0.070000 0.300000 4.050000
v 0.420000 0.562901 4.050000
v 0.070000 0.300000 3.841667
v 0.420000 0.562627 3.841667
v 0.070000 0.200000 3.633333
v 0.420000 0.462325 3.633333
v 0.070000 0.200000 3.425000
v 0.420000 0.462084 3.425000
v 0.070000 0.300000 3.216667
v 0.420000 0.561774 3.216667
v 0.420000 0.561489 3.008333
v 0.070000 0.300000 3.008333
v -0.070000 0.300000 3.008333
v -0.420000 0.561489 3.008333
v -0.070000 0.300000 3.216667
v -0.420000 0.561774 3.216667
v -0.070000 0.200000 3.425000
v -0.420000 0.462084 3.425000
v -0.070000 0.200000 3.633333
v -0.420000 0.462325 3.633333
v -0.070000 0.300000 3.841667
v -0.420000 0.562627 3.841667
v -0.070000 0.300000 4.050000
v -0.420000 0.562901 4.050000
v -0.070000 0.200000 4.258333
v -0.420000 0.463297 4.258334
v -0.070000 0.200000 4.466667
v -0.420000 0.463695 4.466667
v -0.070000 0.300000 4.675000
v -0.420000 0.564315 4.675000
v -0.070000 0.300000 4.883333
v -0.420000 0.564968 4.883333
v -0.420000 0.466015 5.091667
v -0.070000 0.200000 5.091667
v -0.420000 0.501755 5.350000
v -0.070000 0.400000 5.600000
v -0.420000 0.830233 5.350000
v -0.070000 0.900000 5.600000
v 0.420000 0.501755 5.350000
v 0.070000 0.400000 5.600000
v 0.420000 0.830233 5.350000
v 0.070000 0.900000 5.600000
v 0.119840 0.200322 2.000000
v 0.318760 0.849931 1.500000
v -0.318760 0.849931 1.500000
v 0.070000 1.000000 1.500000
v -0.070000 1.000000 1.500000
v 0.159760 0.520483 2.000000
v 0.319380 0.849897 1.750000
v -0.319380 0.849897 1.750000
v 0.070000 1.000000 1.750000
v -0.070000 1.000000 1.750000
vn 0.5183 0.8552 -0.0000
vn 0.5178 0.8555 -0.0003
vn -0.9685 -0.2379 0.0731
vn -0.9552 -0.2943 -0.0294
vn -0.9620 -0.2527 -0.1031
vn -0.0000 -1.0000 -0.0000
vn -0.0000 -0.0000 -1.0000
vn -0.0000 -0.7071 -0.7071
vn 0.9405 -0.3387 -0.0278
vn 0.9479 -0.3017 0.1027
vn 0.9379 -0.3271 -0.1156
vn -0.9923 -0.1230 0.0143
vn -0.9915 -0.1271 0.0286
vn -0.9929 -0.1188 -0.0002
vn -0.9922 -0.1234 0.0156
vn -0.9906 -0.1308 0.0414
vn -0.9931 -0.1175 -0.0047
vn -0.9934 -0.1131 0.0187
vn -0.9934 -0.1112 0.0291
vn -0.0000 1.0000 -0.0000
vn -0.2486 0.9686 -0.0074
vn 0.2486 0.9686 -0.0074
vn -0.5178 0.8555 -0.0003
vn -0.5183 0.8552 -0.0000
vn -0.5157 0.8568 -0.0006
vn -0.4806 0.8768 -0.0147
vn 0.5168 0.8561 -0.0006
vn 0.9923 -0.1230 0.0143
vn 0.9915 -0.1271 0.0286
vn 0.9931 -0.1070 0.0483
vn 0.9934 -0.1102 0.0322
vn 0.9931 -0.1175 -0.0047
vn 0.9929 -0.1188 -0.0002
vn 0.9922 -0.1234 0.0156
vn 0.9906 -0.1308 0.0414
vn -0.0000 -0.3827 0.9239
vn -0.0000 -0.9239 0.3827
vn -0.0000 -0.9239 -0.3827
vn -0.0000 -0.3827 -0.9239
vn -0.0000 0.3827 -0.9239
vn -0.0000 0.9239 -0.3827
vn -0.0000 0.9239 0.3827
vn -0.0000 0.3827 0.9239
vn -0.0000 0.7071 -0.7071
vn 0.0004 -0.9769 0.2137
vn 0.0004 -0.9761 0.2175
vn -0.0000 -0.9751 0.2219
vn 0.9878 -0.1075 -0.1124
vn 0.9515 -0.2778 -0.1319
vn 1.0000 -0.0000 -0.0000
vn -0.9595 -0.2602 -0.1074
vn -0.9916 -0.0814 -0.1005
vn 0.2155 0.9765 -0.0072
vn -0.2155 0.9765 -0.0072
vn -0.2013 0.9795 -0.0000
vn 0.2013 0.9795 -0.0000
vn -0.0000 -0.9751 -0.2219
vn -0.0000 -0.8321 0.5547
vn 0.1981 0.9679 0.1548
vn -0.1981 0.9679 0.1548
vn -0.1568 0.9368 0.3127
vn 0.1568 0.9368 0.3127
vn -1.0000 -0.0000 -0.0000
vn -0.0000 -0.0000 1.0000
vn -0.2013 0.9795 0.0001
vn 0.2013 0.9795 0.0001
vn -0.2014 0.9795 0.0001
vn 0.2014 0.9795 0.0001
vn -0.2015 0.9795 0.0001
vn 0.2015 0.9795 0.0001
vn -0.2017 0.9795 0.0002
vn 0.2017 0.9795 0.0002
vn -0.2019 0.9794 0.0002
vn 0.2019 0.9794 0.0002
vn -0.2021 0.9794 0.0003
vn 0.2021 0.9794 0.0003
vn -0.2025 0.9793 0.0004
vn 0.2025 0.9793 0.0004
vn -0.2029 0.9792 0.0005
vn 0.2029 0.9792 0.0005
vn -0.2035 0.9791 0.0006
vn 0.2035 0.9791 0.0006
vn -0.9619 -0.2714 0.0322
vn -0.8305 -0.5504 -0.0852
vn -0.4200 0.9074 -0.0134
vn 0.8235 -0.5525 -0.1289
vn 0.9603 -0.2744 0.0513
vn 0.4200 0.9074 -0.0134
vn 0.4806 0.8768 -0.0147
vn -0.3985 0.9172 0.0013
vn -0.3951 0.9055 0.1548
vn 0.3943 0.9190 0.0001
vn 0.5867 -0.7854 0.1972
vn 0.5582 -0.7477 0.3597
vn 0.5902 -0.7899 0.1664
vn -0.5971 -0.7854 -0.1629
vn -0.5929 -0.7765 0.2134
vn -0.5850 -0.7656 0.2676
vn -0.5937 -0.7811 -0.1935
vn -0.3943 0.9190 0.0001
vn -0.3944 0.9189 0.0001
vn -0.3946 0.9189 0.0002
vn -0.3948 0.9188 0.0002
vn -0.3951 0.9187 0.0003
vn -0.3954 0.9185 0.0004
vn -0.3959 0.9183 0.0005
vn -0.3965 0.9180 0.0007
vn -0.3974 0.9177 0.0010
vn 0.3951 0.9055 0.1548
vn 0.3985 0.9172 0.0013
vn 0.3974 0.9177 0.0010
vn 0.3965 0.9180 0.0007
vn 0.3959 0.9183 0.0005
vn 0.3954 0.9185 0.0004
vn 0.3951 0.9187 0.0003
vn 0.3948 0.9188 0.0002
vn 0.3946 0.9189 0.0002
vn 0.3944 0.9189 0.0001
vn 0.5929 -0.7765 0.2134
vn 0.5971 -0.7854 -0.1629
vn 0.5937 -0.7811 -0.1935
vn 0.5850 -0.7656 0.2676
vn 0.5923 -0.7820 -0.1942
vn 0.5955 -0.7865 -0.1637
vn 0.5908 -0.7824 0.1971
vn 0.5943 -0.7869 0.1662
vn 0.5934 -0.7876 0.1662
vn 0.5900 -0.7830 0.1970
vn 0.5930 -0.7882 -0.1648
vn 0.5896 -0.7837 -0.1954
vn 0.5890 -0.7841 -0.1956
vn 0.5924 -0.7886 -0.1650
vn 0.5884 -0.7842 0.1969
vn 0.5919 -0.7887 0.1661
vn 0.5914 -0.7891 0.1661
vn 0.5880 -0.7845 0.1969
vn 0.5911 -0.7894 -0.1653
vn 0.5877 -0.7850 -0.1959
vn 0.5873 -0.7853 -0.1959
vn 0.5907 -0.7898 -0.1654
vn -0.5582 -0.7477 0.3597
vn -0.5867 -0.7854 0.1972
vn -0.5902 -0.7899 0.1664
vn -0.5873 -0.7853 -0.1959
vn -0.5907 -0.7898 -0.1654
vn -0.5911 -0.7894 -0.1653
vn -0.5877 -0.7850 -0.1959
vn -0.5914 -0.7891 0.1661
vn -0.5880 -0.7845 0.1969
vn -0.5884 -0.7842 0.1969
vn -0.5919 -0.7887 0.1661
vn -0.5890 -0.7841 -0.1956
vn -0.5924 -0.7886 -0.1650
vn -0.5930 -0.7882 -0.1648
vn -0.5896 -0.7837 -0.1954
vn -0.5934 -0.7876 0.1662
vn -0.5900 -0.7830 0.1970
vn -0.5908 -0.7824 0.1971
vn -0.5943 -0.7869 0.1662
vn -0.5923 -0.7820 -0.1942
vn -0.5955 -0.7865 -0.1637
vn -0.5812 -0.0000 0.8137
vn 0.5812 -0.0000 0.8137
vn 0.5370 -0.7007 0.4697
vn -0.5370 -0.7007 0.4697
vn -0.3830 0.8760 0.2930
vn 0.3830 0.8760 0.2930
vn 0.0008 -1.0000 -0.0002
vn 0.5157 0.8568 -0.0006
vn -0.5168 0.8561 -0.0006
vn 0.9810 -0.1333 0.1412
vn -0.9876 -0.1272 0.0920
vt 0.760053 0.614121
vt 0.273527 0.581484
vt 0.741242 0.418700
vt 0.750749 0.614121
vt 0.000000 0.390068
vt 0.731938 0.418711
vt 0.760053 0.057017
vt 0.274154 0.024388
vt 0.717630 0.680934
vt 0.760053 0.032592
vt 0.298554 0.000000
vt 0.708404 0.682141
vt 0.750749 0.032592
vt 0.025159 0.971565
vt 0.750749 0.057017
vt 0.000780 0.947170
vt 0.233354 0.389742
vt 0.603689 0.535125
vt 0.632477 0.534839
vt 0.546176 0.465411
vt 0.273527 0.971181
vt 0.558618 1.000000
vt 0.644396 0.441849
vt 0.558618 0.534839
vt 0.272875 0.505961
vt 0.587406 0.535125
vt 0.244050 0.904355
vt 0.687572 0.684607
vt 0.229514 0.910340
vt 0.673180 0.687073
vt 0.775194 0.711818
vt 0.258602 0.910292
vt 0.673180 0.751990
vt 0.701964 0.682141
vt 0.244107 0.945061
vt 0.732022 0.778180
vt 0.229555 0.939124
vt 0.746414 0.711818
vt 0.717630 0.775714
vt 0.258643 0.939076
vt 0.746414 0.780645
vt 0.644396 0.751990
vt 0.264647 0.924674
vt 0.658788 0.753012
vt 0.223510 0.924742
vt 0.760902 0.712839
vt 0.517285 0.067052
vt 0.687572 0.748504
vt 0.502770 0.061083
vt 0.673180 0.746038
vt 0.775194 0.770783
vt 0.531814 0.061100
vt 0.673180 0.683163
vt 0.701964 0.750969
vt 0.517331 0.026346
vt 0.732022 0.714283
vt 0.502802 0.032299
vt 0.746414 0.770783
vt 0.717630 0.716749
vt 0.531846 0.032316
vt 0.746414 0.711818
vt 0.644396 0.683163
vt 0.537845 0.046711
vt 0.658788 0.682142
vt 0.496771 0.046687
vt 0.760902 0.769762
vt 0.632477 1.000000
vt 0.546699 0.000195
vt 0.717630 0.432262
vt 0.686821 0.418700
vt 0.603689 0.982842
vt 0.670676 0.420814
vt 0.587406 0.982842
vt 0.194908 0.296788
vt 0.685103 0.093045
vt 0.228456 0.296628
vt 0.644396 0.093045
vt 0.273527 0.296575
vt 0.546699 0.325517
vt 0.587406 0.325803
vt 0.674063 0.000000
vt 0.717630 0.614121
vt 0.195929 0.389798
vt 0.272720 0.389655
vt 0.558330 0.418549
vt 0.587406 0.418835
vt 0.501577 0.674631
vt 0.742093 0.093045
vt 0.468629 0.674795
vt 0.701386 0.093045
vt 0.603689 0.325803
vt 0.546699 0.674697
vt 0.644396 0.325517
vt 0.603689 0.418835
vt 0.546048 0.581713
vt 0.632765 0.418549
vt 0.685103 0.383809
vt 0.228753 0.005864
vt 0.644396 0.383809
vt 0.272825 0.005813
vt 0.546699 0.034787
vt 0.587406 0.035077
vt 0.501954 0.965392
vt 0.742093 0.383809
vt 0.701386 0.383809
vt 0.603689 0.035077
vt 0.546077 0.965456
vt 0.644396 0.034787
vt 0.273491 0.272345
vt 0.546699 0.301290
vt 0.587406 0.301575
vt 0.273454 0.248115
vt 0.546699 0.277063
vt 0.587406 0.277348
vt 0.273415 0.223885
vt 0.546699 0.252836
vt 0.587406 0.253121
vt 0.273373 0.199654
vt 0.546699 0.228608
vt 0.587406 0.228894
vt 0.273329 0.175424
vt 0.546699 0.204381
vt 0.587406 0.204667
vt 0.273282 0.151194
vt 0.546699 0.180154
vt 0.587406 0.180440
vt 0.273229 0.126964
vt 0.546699 0.155926
vt 0.587406 0.156213
vt 0.273171 0.102734
vt 0.546699 0.131699
vt 0.587406 0.131986
vt 0.273104 0.078503
vt 0.546699 0.107471
vt 0.587406 0.107759
vt 0.273027 0.054273
vt 0.546699 0.083243
vt 0.587406 0.083531
vt 0.587406 0.059304
vt 0.272936 0.030043
vt 0.546699 0.059015
vt 0.546181 0.941226
vt 0.644396 0.059015
vt 0.603689 0.059304
vt 0.546266 0.916996
vt 0.644396 0.083243
vt 0.603689 0.083531
vt 0.546336 0.892766
vt 0.644396 0.107471
vt 0.603689 0.107759
vt 0.546396 0.868536
vt 0.644396 0.131699
vt 0.603689 0.131986
vt 0.546448 0.844306
vt 0.644396 0.155926
vt 0.603689 0.156213
vt 0.546494 0.820077
vt 0.644396 0.180154
vt 0.603689 0.180440
vt 0.546535 0.795847
vt 0.644396 0.204381
vt 0.603689 0.204667
vt 0.546572 0.771617
vt 0.644396 0.228608
vt 0.603689 0.228894
vt 0.546607 0.747387
vt 0.644396 0.252835
vt 0.603689 0.253121
vt 0.546639 0.723157
vt 0.644396 0.277063
vt 0.603689 0.277348
vt 0.603689 0.301575
vt 0.546670 0.698927
vt 0.644396 0.301290
vt 0.701386 0.359578
vt 0.501851 0.941161
vt 0.742093 0.359578
vt 0.701386 0.335348
vt 0.513362 0.916948
vt 0.742093 0.335348
vt 0.701386 0.311118
vt 0.513314 0.892718
vt 0.742093 0.311118
vt 0.701386 0.286887
vt 0.501663 0.868471
vt 0.742093 0.286887
vt 0.701386 0.262657
vt 0.501644 0.844241
vt 0.742093 0.262657
vt 0.701386 0.238427
vt 0.513232 0.820028
vt 0.742093 0.238427
vt 0.701386 0.214196
vt 0.513227 0.795798
vt 0.742093 0.214196
vt 0.701386 0.189966
vt 0.501613 0.771551
vt 0.742093 0.189966
vt 0.701386 0.165736
vt 0.501613 0.747321
vt 0.742093 0.165736
vt 0.701386 0.141505
vt 0.513210 0.723108
vt 0.742093 0.141505
vt 0.513204 0.698878
vt 0.742093 0.117275
vt 0.701386 0.117275
vt 0.685103 0.117275
vt 0.240064 0.272384
vt 0.644396 0.117275
vt 0.685103 0.141505
vt 0.240063 0.248154
vt 0.644396 0.141505
vt 0.685103 0.165736
vt 0.228472 0.223937
vt 0.644396 0.165736
vt 0.685103 0.189966
vt 0.228466 0.199707
vt 0.644396 0.189966
vt 0.685103 0.214196
vt 0.240060 0.175463
vt 0.644396 0.214196
vt 0.685103 0.238427
vt 0.240058 0.151233
vt 0.644396 0.238427
vt 0.685103 0.262657
vt 0.228477 0.127016
vt 0.644396 0.262657
vt 0.685103 0.286887
vt 0.228489 0.102785
vt 0.644396 0.286887
vt 0.685103 0.311118
vt 0.240120 0.078542
vt 0.644396 0.311118
vt 0.685103 0.335348
vt 0.240161 0.054311
vt 0.644396 0.335348
vt 0.228656 0.030095
vt 0.644396 0.359578
vt 0.685103 0.359578
vt 0.232757 0.000044
vt 0.729464 0.711818
vt 0.644396 0.389624
vt 0.717630 0.671111
vt 0.685103 0.418700
vt 0.270837 0.000000
vt 0.767668 0.711818
vt 0.546699 0.028940
vt 0.775783 0.671111
vt 0.587406 0.000000
vt 0.505965 0.971213
vt 0.729464 0.614121
vt 0.742093 0.389624
vt 0.717630 0.654828
vt 0.701386 0.418700
vt 0.544088 0.971269
vt 0.767668 0.614121
vt 0.644396 0.028940
vt 0.775783 0.654828
vt 0.603689 0.000000
vt 0.707182 0.000000
vt 0.750749 0.614121
vt 0.469148 0.581722
vt 0.632621 0.476694
vt 0.546112 0.523562
vt 0.558474 0.476694
vt 0.272798 0.447808
vt 0.603689 0.476980
vt 0.587406 0.476980
vt 0.506608 0.581753
vt 0.632693 0.447622
vt 0.546080 0.552638
vt 0.558402 0.447622
vt 0.272759 0.418731
vt 0.603689 0.447907
vt 0.587406 0.447907
s 1
g Cube_Handle
usemtl Handle
f 32/75/45 40/90/46 118/207/47 119/208/47
f 154/270/9 44/95/11 42/92/48 39/87/49
f 39/87/49 42/92/48 96/173/50 117/205/50
f 49/103/50 52/107/50 147/256/50 145/251/50
f 33/76/51 34/78/52 37/84/5 7/17/4
f 41/91/53 35/80/54 54/111/55 95/172/56
f 140/240/57 97/175/57 50/105/6 45/97/6
f 95/172/56 54/111/55 56/114/55 94/171/56
f 45/97/58 50/105/58 146/255/58 142/245/58
f 51/106/59 48/102/60 144/250/61 148/260/62
f 34/78/52 33/76/51 120/209/63 53/109/63
f 146/254/64 148/259/64 144/249/64 142/244/64
f 119/208/47 118/207/47 115/202/57 121/211/57
f 121/211/57 115/202/57 113/199/57 123/214/57
f 123/214/57 113/199/57 111/196/47 125/217/47
f 125/217/47 111/196/47 109/193/47 127/220/47
f 127/220/47 109/193/47 107/190/57 129/223/57
f 129/223/57 107/190/57 105/187/57 131/226/57
f 131/226/57 105/187/57 103/184/47 133/229/47
f 133/229/47 103/184/47 101/181/47 135/232/47
f 135/232/47 101/181/47 99/178/57 137/235/57
f 43/94/22 38/86/21 35/80/54 41/91/53
f 94/171/56 56/114/55 58/117/65 92/168/66
f 92/168/66 58/117/65 60/120/67 90/165/68
f 90/165/68 60/120/67 62/123/69 88/162/70
f 88/162/70 62/123/69 64/126/71 86/159/72
f 86/159/72 64/126/71 66/129/73 84/156/74
f 84/156/74 66/129/73 68/132/75 82/153/76
f 82/153/76 68/132/75 70/135/77 80/150/78
f 80/150/78 70/135/77 72/138/79 78/147/80
f 78/147/80 72/138/79 73/139/81 76/144/82
f 100/179/50 77/145/50 75/142/50 98/176/50
f 47/100/63 46/98/63 141/241/63 143/246/63
f 137/235/57 99/178/57 97/175/57 140/240/57
f 117/205/50 96/173/50 93/169/50 116/203/50
f 116/203/50 93/169/50 91/166/50 114/200/50
f 114/200/50 91/166/50 89/163/50 112/197/50
f 112/197/50 89/163/50 87/160/50 110/194/50
f 110/194/50 87/160/50 85/157/50 108/191/50
f 108/191/50 85/157/50 83/154/50 106/188/50
f 106/188/50 83/154/50 81/151/50 104/185/50
f 104/185/50 81/151/50 79/148/50 102/182/50
f 102/182/50 79/148/50 77/145/50 100/179/50
f 53/109/63 120/209/63 122/212/63 55/112/63
f 55/112/63 122/212/63 124/215/63 57/115/63
f 57/115/63 124/215/63 126/218/63 59/118/63
f 59/118/63 126/218/63 128/221/63 61/121/63
f 61/121/63 128/221/63 130/224/63 63/124/63
f 63/124/63 130/224/63 132/227/63 65/127/63
f 65/127/63 132/227/63 134/230/63 67/130/63
f 67/130/63 134/230/63 136/233/63 69/133/63
f 69/133/63 136/233/63 138/236/63 71/136/63
f 71/136/63 138/236/63 139/238/63 74/140/63
f 74/140/63 139/238/63 46/98/63 47/100/63
f 76/144/82 73/139/81 48/102/60 51/106/59
f 98/176/50 75/142/50 52/107/50 49/103/50
f 36/83/83 32/74/84 33/76/51 7/17/4
f 35/80/54 38/86/21 37/85/26 34/79/85
f 40/89/86 149/263/87 154/270/9 39/87/49
f 43/94/22 41/91/53 42/93/88 44/96/89
f 74/141/90 47/101/91 48/102/60 73/139/81
f 96/174/92 42/93/88 41/91/53 95/172/56
f 118/207/93 40/90/94 39/88/94 117/206/95
f 140/240/96 45/97/97 46/99/98 139/239/99
f 34/79/85 53/110/100 54/111/55 35/80/54
f 53/110/100 55/113/100 56/114/55 54/111/55
f 55/113/100 57/116/101 58/117/65 56/114/55
f 57/116/101 59/119/102 60/120/67 58/117/65
f 59/119/102 61/122/103 62/123/69 60/120/67
f 61/122/103 63/125/104 64/126/71 62/123/69
f 63/125/104 65/128/105 66/129/73 64/126/71
f 65/128/105 67/131/106 68/132/75 66/129/73
f 67/131/106 69/134/107 70/135/77 68/132/75
f 69/134/107 71/137/108 72/138/79 70/135/77
f 71/137/108 74/141/90 73/139/81 72/138/79
f 52/108/109 75/143/110 76/144/82 51/106/59
f 75/143/110 77/146/111 78/147/80 76/144/82
f 77/146/111 79/149/112 80/150/78 78/147/80
f 79/149/112 81/152/113 82/153/76 80/150/78
f 81/152/113 83/155/114 84/156/74 82/153/76
f 83/155/114 85/158/115 86/159/72 84/156/74
f 85/158/115 87/161/116 88/162/70 86/159/72
f 87/161/116 89/164/117 90/165/68 88/162/70
f 89/164/117 91/167/118 92/168/66 90/165/68
f 91/167/118 93/170/92 94/171/56 92/168/66
f 93/170/92 96/174/92 95/172/56 94/171/56
f 50/105/119 97/175/120 98/177/121 49/104/122
f 97/175/120 99/178/123 100/180/124 98/177/121
f 99/178/123 101/181/125 102/183/126 100/180/124
f 101/181/125 103/184/127 104/186/128 102/183/126
f 103/184/127 105/187/129 106/189/130 104/186/128
f 105/187/129 107/190/131 108/192/132 106/189/130
f 107/190/131 109/193/133 110/195/134 108/192/132
f 109/193/133 111/196/135 112/198/136 110/195/134
f 111/196/135 113/199/137 114/201/138 112/198/136
f 113/199/137 115/202/139 116/204/140 114/201/138
f 115/202/139 118/207/93 117/206/95 116/204/140
f 32/75/141 119/208/142 120/210/143 33/77/141
f 119/208/142 121/211/144 122/213/145 120/210/143
f 121/211/144 123/214/146 124/216/147 122/213/145
f 123/214/146 125/217/148 126/219/149 124/216/147
f 125/217/148 127/220/150 128/222/151 126/219/149
f 127/220/150 129/223/152 130/225/153 128/222/151
f 129/223/152 131/226/154 132/228/155 130/225/153
f 131/226/154 133/229/156 134/231/157 132/228/155
f 133/229/156 135/232/158 136/234/159 134/231/157
f 135/232/158 137/235/160 138/237/161 136/234/159
f 137/235/160 140/240/96 139/239/99 138/237/161
f 142/244/162 144/249/162 143/247/162 141/242/162
f 148/259/163 146/254/163 145/252/163 147/257/163
f 49/104/122 145/253/164 146/255/164 50/105/119
f 141/243/165 46/99/98 45/97/97 142/245/165
f 144/250/61 48/102/60 47/101/91 143/248/166
f 147/258/167 52/108/109 51/106/59 148/260/62
f 36/81/168 149/261/168 40/90/46 32/75/45
g Cube_Blade
usemtl Blade
f 29/67/1 30/71/1 8/18/2 9/19/2
f 156/274/3 7/17/4 37/84/5
f 6/15/6 3/7/6 1/1/6 2/4/6
f 10/23/7 29/69/7 4/9/7 5/12/7
f 3/7/8 6/15/8 5/13/8 4/10/8
f 154/270/9 155/272/10 44/95/11
f 18/40/12 10/21/13 5/14/14 20/45/15 17/37/16 16/35/16
f 20/45/15 5/14/14 6/16/17 2/5/18 11/25/19 10/21/13 18/40/12 19/43/17 15/32/17 13/27/17 14/29/17
f 157/275/20 158/276/20 38/86/21 43/94/22
f 12/26/23 31/73/24 10/22/24 11/24/23
f 156/273/25 37/85/26 38/86/21 158/276/25
f 150/264/27 9/19/2 8/18/2 152/268/27
f 26/60/28 29/68/29 9/20/30 1/2/31 3/8/32 4/11/33 28/65/34 22/49/32 21/47/32 23/52/32 27/63/32
f 4/11/33 29/68/29 26/60/28 24/55/35 25/57/35 28/65/34
f 18/41/36 16/36/36 24/56/36 26/61/36
f 18/42/37 26/62/37 27/64/37 19/44/37
f 19/44/38 27/64/38 23/53/38 15/33/38
f 15/34/39 23/54/39 21/48/39 13/28/39
f 13/28/40 21/48/40 22/50/40 14/30/40
f 20/46/41 14/31/41 22/51/41 28/66/41
f 17/38/42 20/46/42 28/66/42 25/58/42
f 16/36/43 17/39/43 25/59/43 24/56/43
f 29/69/44 10/23/44 31/72/44 30/70/44
f 30/71/20 31/73/20 12/26/20 8/18/20
f 155/271/169 150/264/27 152/268/27 157/275/169
f 11/24/23 151/266/170 153/269/170 12/26/23
f 8/18/20 12/26/20 153/269/20 152/268/20
f 1/2/31 9/20/30 150/265/171 149/263/87
f 11/25/19 2/5/18 36/83/83 151/267/172
f 2/6/64 1/3/64 149/262/64 36/82/64
f 44/96/89 155/271/169 157/275/169 43/94/22
f 151/266/170 156/273/25 158/276/25 153/269/170
f 152/268/20 153/269/20 158/276/20 157/275/20
f 149/263/87 150/265/171 155/272/10 154/270/9
f 151/267/172 36/83/83 7/17/4 156/274/3
