# Blender 3.5.1
# www.blender.org
mtllib Plate.mtl
o Cylinder
v 0.000000 -0.162167 -1.320000
v -0.000000 0.008333 -1.386000
v 0.933381 -0.162167 -0.933381
v 0.980050 0.008333 -0.980050
v 1.320000 -0.162167 -0.000000
v 1.386000 0.008333 -0.000000
v 0.933381 -0.162167 0.933381
v 0.980050 0.008333 0.980050
v 0.000000 -0.162167 1.320000
v -0.000000 0.008333 1.386000
v -0.933381 -0.162167 0.933381
v -0.980050 0.008333 0.980050
v -1.320000 -0.162167 -0.000000
v -1.386000 0.008333 -0.000000
v -0.933381 -0.162167 -0.933381
v -0.980050 0.008333 -0.980050
v 0.000000 0.069547 -1.651104
v 1.167507 0.069547 -1.167507
v 1.651104 0.069547 -0.000000
v 1.167507 0.069547 1.167507
v 0.000000 0.069547 1.651104
v -1.167507 0.069547 1.167507
v -1.651104 0.069547 -0.000000
v -1.167507 0.069547 -1.167507
v 0.000000 0.156667 -1.466595
v 1.037039 0.156667 -1.037039
v 1.466595 0.156667 -0.000000
v 1.037039 0.156667 1.037039
v 0.000000 0.156667 1.466595
v -1.037039 0.156667 1.037039
v -1.466595 0.156667 -0.000000
v -1.037039 0.156667 -1.037039
v 1.167507 0.153787 -1.167507
v 0.000000 0.153787 -1.651104
v 1.651104 0.153787 -0.000000
v 1.167507 0.153787 1.167507
v 0.000000 0.153787 1.651104
v -1.167507 0.153787 1.167507
v -1.651104 0.153787 -0.000000
v -1.167507 0.153787 -1.167507
v -0.000000 -0.096167 -1.310158
v 0.926422 -0.096167 -0.926422
v 1.310158 -0.096167 0.000000
v 0.926422 -0.096167 0.926422
v -0.000000 -0.096167 1.310158
v -0.926422 -0.096167 0.926422
v -1.310158 -0.096167 0.000000
v -0.926422 -0.096167 -0.926422
vn -0.0000 -0.3610 -0.9326
vn 0.6594 -0.3610 -0.6594
vn 0.9326 -0.3610 -0.0000
vn 0.6594 -0.3610 0.6594
vn -0.0000 -0.3610 0.9326
vn -0.6594 -0.3610 0.6594
vn -0.9326 -0.3610 -0.0000
vn -0.1591 -0.9744 -0.1591
vn -0.2250 -0.9744 -0.0000
vn -0.6594 -0.3610 -0.6594
vn -0.0000 -1.0000 -0.0000
vn -0.0000 -0.0000 -1.0000
vn -0.3827 -0.0000 -0.9239
vn 0.2250 -0.9744 -0.0000
vn 0.1591 -0.9744 -0.1591
vn -0.1591 -0.9744 0.1591
vn -0.0000 -0.9744 0.2250
vn -0.0000 -0.9744 -0.2250
vn 0.1591 -0.9744 0.1591
vn 0.6013 0.5262 0.6013
vn 0.8504 0.5262 -0.0000
vn -1.0000 -0.0000 -0.0000
vn -0.9239 -0.0000 0.3827
vn -0.0000 -0.0000 1.0000
vn 0.3827 -0.0000 0.9239
vn 1.0000 -0.0000 -0.0000
vn 0.9239 -0.0000 -0.3827
vn -0.9239 -0.0000 -0.3827
vn -0.3827 -0.0000 0.9239
vn 0.9239 -0.0000 0.3827
vn 0.3827 -0.0000 -0.9239
vn -0.0000 0.9999 -0.0156
vn 0.0110 0.9999 -0.0110
vn 0.0156 0.9999 -0.0000
vn 0.0110 0.9999 0.0110
vn -0.0000 0.9999 0.0156
vn -0.0110 0.9999 0.0110
vn -0.0156 0.9999 -0.0000
vn -0.0110 0.9999 -0.0110
vn 0.6013 0.5262 -0.6013
vn -0.0000 0.5262 -0.8504
vn -0.6013 0.5262 -0.6013
vn -0.8504 0.5262 -0.0000
vn -0.6013 0.5262 0.6013
vn -0.0000 0.5262 0.8504
vn -0.0000 1.0000 -0.0000
vt 1.000000 0.500000
vt 0.000000 0.500000
vt 0.750000 0.490000
vt 0.000000 1.000000
vt 1.000000 1.000000
vt 0.875000 0.500000
vt 0.919706 0.419706
vt 0.875000 1.000000
vt 0.750000 0.500000
vt 0.990000 0.250000
vt 0.750000 1.000000
vt 0.625000 0.500000
vt 0.919706 0.080294
vt 0.625000 1.000000
vt 0.500000 0.500000
vt 0.750000 0.010000
vt 0.500000 1.000000
vt 0.375000 0.500000
vt 0.580294 0.080294
vt 0.375000 1.000000
vt 0.250000 0.500000
vt 0.510000 0.250000
vt 0.250000 1.000000
vt 0.125000 0.500000
vt 0.580294 0.419706
vt 0.125000 1.000000
vt 0.000000 1.000000
vt 1.000000 1.000000
vt 0.875000 1.000000
vt 0.750000 1.000000
vt 0.625000 1.000000
vt 0.500000 1.000000
vt 0.375000 1.000000
vt 0.250000 1.000000
vt 0.125000 1.000000
vt 0.250000 0.476746
vt 0.410334 0.410334
vt 0.476746 0.250000
vt 0.410334 0.089666
vt 0.250000 0.023254
vt 0.089666 0.089666
vt 0.023254 0.250000
vt 0.089666 0.410334
vt 0.875000 1.000000
vt 0.419706 0.419706
vt 0.000000 1.000000
vt 1.000000 1.000000
vt 0.250000 0.490000
vt 0.750000 1.000000
vt 0.490000 0.250000
vt 0.625000 1.000000
vt 0.419706 0.080294
vt 0.500000 1.000000
vt 0.250000 0.010000
vt 0.375000 1.000000
vt 0.080294 0.080294
vt 0.250000 1.000000
vt 0.010000 0.250000
vt 0.125000 1.000000
vt 0.080294 0.419706
vt 0.250000 0.476746
vt 0.410334 0.410334
vt 0.476746 0.250000
vt 0.410334 0.089666
vt 0.250000 0.023254
vt 0.089666 0.089666
vt 0.023254 0.250000
vt 0.089666 0.410334
s 1
f 1/1/1 2/5/1 4/8/2 3/6/2
f 3/6/2 4/8/2 6/11/3 5/9/3
f 5/9/3 6/11/3 8/14/4 7/12/4
f 7/12/4 8/14/4 10/17/5 9/15/5
f 9/15/5 10/17/5 12/20/6 11/18/6
f 11/18/6 12/20/6 14/23/7 13/21/7
f 16/26/8 14/23/9 23/34/9 24/35/8
f 13/21/7 14/23/7 16/26/10 15/24/10
f 15/24/10 16/26/10 2/4/1 1/2/1
f 1/3/11 3/7/11 5/10/11 7/13/11 9/16/11 11/19/11 13/22/11 15/25/11
f 17/27/12 24/35/13 40/59/13 34/46/12
f 6/11/14 4/8/15 18/29/15 19/30/14
f 12/20/16 10/17/17 21/32/17 22/33/16
f 2/4/18 16/26/8 24/35/8 17/27/18
f 4/8/15 2/5/18 17/28/18 18/29/15
f 8/14/19 6/11/14 19/30/14 20/31/19
f 14/23/9 12/20/16 22/33/16 23/34/9
f 10/17/17 8/14/19 20/31/19 21/32/17
f 32/43/20 31/42/21 47/67/21 48/68/20
f 23/34/22 22/33/23 38/55/23 39/57/22
f 21/32/24 20/31/25 36/51/25 37/53/24
f 19/30/26 18/29/27 33/44/27 35/49/26
f 24/35/28 23/34/22 39/57/22 40/59/28
f 22/33/29 21/32/24 37/53/24 38/55/29
f 20/31/30 19/30/26 35/49/26 36/51/30
f 18/29/31 17/28/12 34/47/12 33/44/31
f 25/36/32 26/37/33 33/45/33 34/48/32
f 26/37/33 27/38/34 35/50/34 33/45/33
f 27/38/34 28/39/35 36/52/35 35/50/34
f 28/39/35 29/40/36 37/54/36 36/52/35
f 29/40/36 30/41/37 38/56/37 37/54/36
f 30/41/37 31/42/38 39/58/38 38/56/37
f 31/42/38 32/43/39 40/60/39 39/58/38
f 32/43/39 25/36/32 34/48/32 40/60/39
f 30/41/40 29/40/41 45/65/41 46/66/40
f 28/39/42 27/38/43 43/63/43 44/64/42
f 26/37/44 25/36/45 41/61/45 42/62/44
f 25/36/45 32/43/20 48/68/20 41/61/45
f 31/42/21 30/41/40 46/66/40 47/67/21
f 29/40/41 28/39/42 44/64/42 45/65/41
f 27/38/43 26/37/44 42/62/44 43/63/43
f 42/62/46 41/61/46 48/68/46 47/67/46 46/66/46 45/65/46 44/64/46 43/63/46
