# Blender 3.5.1
# www.blender.org
mtllib Tomato.mtl
o Plane
v 1.200000 -0.150000 -0.160000
v 0.900000 -0.150000 -0.860000
v 1.200000 0.150000 -0.160000
v 0.200000 -0.150000 -1.160000
v 1.100000 -0.150000 0.540000
v 0.700000 -0.150000 1.040000
v -0.100000 -0.150000 1.140000
v -1.000000 -0.150000 0.940000
v -1.300000 -0.150000 0.140000
v -1.200000 -0.150000 -0.560000
v -0.500000 -0.150000 -1.060000
v 0.900000 0.150000 -0.860000
v 0.200000 0.150000 -1.160000
v 1.100000 0.150000 0.540000
v 0.700000 0.150000 1.040000
v -0.100000 0.150000 1.140000
v -1.000000 0.150000 0.940000
v -1.300000 0.150000 0.140000
v -1.200000 0.150000 -0.560000
v -0.500000 0.150000 -1.060000
vn -0.0000 -1.0000 -0.0000
vn -0.0000 1.0000 -0.0000
vn 0.9191 -0.0000 -0.3939
vn -0.9899 -0.0000 -0.1414
vn 0.1240 -0.0000 0.9923
vn 0.3939 -0.0000 -0.9191
vn -0.5812 -0.0000 -0.8137
vn -0.2169 -0.0000 0.9762
vn -0.1414 -0.0000 -0.9899
vn 0.9899 -0.0000 0.1414
vn -0.9363 -0.0000 0.3511
vn 0.7809 -0.0000 0.6247
vt 0.857561 0.358452
vt 0.715992 0.916717
vt 0.816905 0.210539
vt 0.844879 0.916717
vt 0.030073 0.918805
vt 0.843816 0.417269
vt 0.715992 0.975996
vt 0.658934 0.125682
vt 0.160288 0.918805
vt 0.799833 0.491339
vt 0.576272 0.916717
vt 0.677784 0.573915
vt 0.366544 0.758379
vt 0.467573 0.916717
vt 0.476284 0.563384
vt 0.209575 0.758379
vt 0.264388 0.490535
vt 0.030073 0.758379
vt 0.389448 0.815569
vt 0.228466 0.323101
vt 0.553012 0.815569
vt 0.286194 0.190214
vt 0.688378 0.815569
vt 0.449139 0.918805
vt 0.482030 0.118907
vt 0.299976 0.918805
vt 0.744634 0.546587
vt 0.844879 0.975996
vt 0.030073 0.978084
vt 0.560440 0.585945
vt 0.160288 0.978084
vt 0.843816 0.276706
vt 0.576272 0.975996
vt 0.762345 0.167066
vt 0.366544 0.817658
vt 0.467573 0.975996
vt 0.567525 0.124897
vt 0.209575 0.817658
vt 0.337282 0.138954
vt 0.030073 0.817658
vt 0.389448 0.756291
vt 0.234558 0.287951
vt 0.553012 0.756291
vt 0.234558 0.428514
vt 0.688378 0.756291
vt 0.449139 0.978084
vt 0.390415 0.546587
vt 0.299976 0.978084
s 0
usemtl Material.001
f 5/10/1 6/12/1 7/15/1 8/17/1 9/20/1 10/22/1 11/25/1 4/8/1 2/3/1 1/1/1
f 14/32/2 3/6/2 12/27/2 13/30/2 20/47/2 19/44/2 18/42/2 17/39/2 16/37/2 15/34/2
f 2/4/3 12/28/3 3/7/3 1/2/3
f 9/21/4 18/43/4 19/45/4 10/23/4
f 6/13/5 15/35/5 16/38/5 7/16/5
f 4/9/6 13/31/6 12/29/6 2/5/6
f 10/24/7 19/46/7 20/48/7 11/26/7
f 7/16/8 16/38/8 17/40/8 8/18/8
f 11/26/9 20/48/9 13/31/9 4/9/9
f 1/2/10 3/7/10 14/33/10 5/11/10
f 8/19/11 17/41/11 18/43/11 9/21/11
f 5/11/12 14/33/12 15/36/12 6/14/12
