# Blender 3.5.1
# www.blender.org
mtllib Bacon.mtl
o Plane
v 1.400000 -0.150000 -0.260000
v 0.400000 -0.150000 -0.160000
v -0.300000 -0.150000 -0.560000
v 1.600000 -0.150000 0.040000
v 1.200000 -0.150000 0.640000
v 0.600000 -0.150000 0.840000
v -0.300000 -0.150000 0.740000
v 0.800000 -0.150000 0.640000
v -1.300000 -0.150000 -0.260000
v -0.900000 -0.150000 -0.460000
v 0.150000 -0.150000 -0.460000
v 0.700000 -0.150000 -0.310000
v -0.650000 -0.150000 0.790000
v -1.150000 -0.150000 0.590000
v -1.550000 -0.150000 0.290000
v -1.400000 -0.150000 0.140000
v -1.500000 -0.150000 0.040000
v -0.600000 -0.150000 -0.410000
v 1.400000 0.150000 -0.260000
v 0.400000 0.150000 -0.160000
v -0.300000 0.150000 -0.560000
v 1.600000 0.150000 0.040000
v 1.200000 0.150000 0.640000
v 0.600000 0.150000 0.840000
v -0.300000 0.150000 0.740000
v 0.800000 0.150000 0.640000
v -1.300000 0.150000 -0.260000
v -0.900000 0.150000 -0.460000
v 0.150000 0.150000 -0.460000
v 0.700000 0.150000 -0.310000
v -0.650000 0.150000 0.790000
v -1.150000 0.150000 0.590000
v -1.550000 0.150000 0.290000
v -1.400000 0.150000 0.140000
v -1.500000 0.150000 0.040000
v -0.600000 0.150000 -0.410000
vn -0.0000 -1.0000 -0.0000
vn -0.0000 1.0000 -0.0000
vn 0.2169 -0.0000 -0.9762
vn 0.1414 -0.0000 0.9899
vn 0.0712 -0.0000 -0.9975
vn 0.1644 -0.0000 -0.9864
vn -0.3714 -0.0000 0.9285
vn 0.8321 -0.0000 0.5547
vn -0.7071 -0.0000 -0.7071
vn -0.0000 -0.0000 1.0000
vn -0.7071 -0.0000 0.7071
vn -0.1104 -0.0000 0.9939
vn -0.6000 -0.0000 0.8000
vn -0.4472 -0.0000 -0.8944
vn 0.8321 -0.0000 -0.5547
vn 0.7682 -0.0000 -0.6402
vn 0.7071 -0.0000 0.7071
vn -0.8321 -0.0000 -0.5547
vt 0.854614 0.393058
vt 0.058594 0.925303
vt 0.614002 0.373935
vt 0.210120 0.925303
vt 0.445558 0.450302
vt 0.327246 0.925303
vt 0.902747 0.335774
vt 0.507467 0.833651
vt 0.020760 0.925303
vt 0.806521 0.221185
vt 0.395760 0.833651
vt 0.591504 0.833651
vt 0.662159 0.182977
vt 0.365728 0.832602
vt 0.637610 0.807579
vt 0.445602 0.202049
vt 0.225290 0.832602
vt 0.710275 0.221175
vt 0.530442 0.833651
vt 0.712691 0.807579
vt 0.204954 0.392986
vt 0.474067 0.925303
vt 0.301193 0.431190
vt 0.417221 0.925303
vt 0.553838 0.431218
vt 0.255648 0.925303
vt 0.686182 0.402588
vt 0.167485 0.925303
vt 0.361389 0.192491
vt 0.173383 0.832602
vt 0.241075 0.230671
vt 0.090962 0.832602
vt 0.144819 0.287950
vt 0.565905 0.995503
vt 0.020760 0.832602
vt 0.180906 0.316598
vt 0.602706 0.995503
vt 0.505542 0.996157
vt 0.156841 0.335692
vt 0.540008 0.996157
vt 0.497784 0.925303
vt 0.373379 0.421650
vt 0.369881 0.925303
vt 0.858423 0.390799
vt 0.058594 0.984146
vt 0.617811 0.371676
vt 0.210120 0.984146
vt 0.449367 0.448043
vt 0.327246 0.984146
vt 0.906556 0.333515
vt 0.507467 0.892493
vt 0.020760 0.984146
vt 0.810330 0.218926
vt 0.395760 0.892493
vt 0.591504 0.892493
vt 0.665968 0.180717
vt 0.365728 0.891444
vt 0.637610 0.871091
vt 0.449411 0.199789
vt 0.225290 0.891444
vt 0.714084 0.218915
vt 0.530442 0.892493
vt 0.712691 0.871091
vt 0.208763 0.390727
vt 0.474067 0.984146
vt 0.305002 0.428930
vt 0.417221 0.984146
vt 0.557647 0.428958
vt 0.255648 0.984146
vt 0.689991 0.400328
vt 0.167485 0.984146
vt 0.365197 0.190232
vt 0.173383 0.891444
vt 0.244883 0.228411
vt 0.090962 0.891444
vt 0.148627 0.285690
vt 0.565905 0.925744
vt 0.020760 0.891444
vt 0.184715 0.314339
vt 0.602706 0.925744
vt 0.505542 0.926399
vt 0.160650 0.333432
vt 0.540008 0.926399
vt 0.497784 0.984146
vt 0.377188 0.419390
vt 0.369881 0.984146
s 0
usemtl Material.001
f 4/7/1 5/10/1 8/18/1 6/13/1 7/16/1 13/29/1 14/31/1 15/33/1 16/36/1 17/39/1 9/21/1 10/23/1 18/42/1 3/5/1 11/25/1 2/3/1 12/27/1 1/1/1
f 22/50/2 19/44/2 30/70/2 20/46/2 29/68/2 21/48/2 36/85/2 28/66/2 27/64/2 35/82/2 34/79/2 33/76/2 32/74/2 31/72/2 25/59/2 24/56/2 26/61/2 23/53/2
f 3/6/3 21/49/3 29/69/3 11/26/3
f 7/17/4 25/60/4 31/73/4 13/30/4
f 12/28/5 30/71/5 19/45/5 1/2/5
f 10/24/6 28/67/6 36/86/6 18/43/6
f 13/30/7 31/73/7 32/75/7 14/32/7
f 4/8/8 22/51/8 23/54/8 5/11/8
f 15/34/9 33/77/9 34/80/9 16/37/9
f 5/12/10 23/55/10 26/62/10 8/19/10
f 16/38/11 34/81/11 35/83/11 17/40/11
f 6/14/12 24/57/12 25/60/12 7/17/12
f 14/32/13 32/75/13 33/78/13 15/35/13
f 18/43/14 36/86/14 21/49/14 3/6/14
f 1/2/15 19/45/15 22/52/15 4/9/15
f 11/26/16 29/69/16 20/47/16 2/4/16
f 8/20/17 26/63/17 24/58/17 6/15/17
f 2/4/14 20/47/14 30/71/14 12/28/14
f 17/41/18 35/84/18 27/65/18 9/22/18
f 9/22/14 27/65/14 28/67/14 10/24/14
