# Blender 3.5.1
# www.blender.org
mtllib CookedEgg.mtl
o Plane
v 2.200000 0.000000 0.291667
v 2.100000 0.000000 -0.188333
v 0.400000 0.000000 -1.628333
v 1.500000 0.000000 -1.028333
v 1.900000 0.000000 1.371667
v 1.200000 0.000000 1.851667
v -0.000000 0.000000 1.911667
v -1.000000 0.000000 1.871667
v -1.900000 0.000000 1.371667
v -2.300000 0.000000 0.291667
v -1.900000 0.000000 -0.908333
v -0.600000 0.000000 -1.508333
v 2.200000 0.400000 0.291667
v 2.100000 0.400000 -0.188333
v 0.400000 0.400000 -1.628333
v 1.500000 0.400000 -1.028333
v 1.900000 0.400000 1.371667
v 1.200000 0.400000 1.851667
v -0.000000 0.400000 1.911667
v -1.000000 0.400000 1.871667
v -1.900000 0.400000 1.371667
v -2.300000 0.400000 0.291667
v -1.900000 0.400000 -0.908333
v -0.600000 0.400000 -1.508333
vn -0.0000 -1.0000 -0.0000
vn -0.0000 1.0000 -0.0000
vn 0.8137 -0.0000 -0.5812
vn -0.9487 -0.0000 -0.3162
vn -0.0400 -0.0000 0.9992
vn 0.4789 -0.0000 -0.8779
vn -0.4191 -0.0000 -0.9080
vn 0.9635 -0.0000 0.2676
vn -0.4856 -0.0000 0.8742
vn 0.5655 -0.0000 0.8247
vn -0.1191 -0.0000 -0.9929
vn 0.9790 -0.0000 -0.2040
vn -0.9377 -0.0000 0.3473
vn 0.0499 -0.0000 0.9988
vt 0.181764 0.334118
vt 0.601593 0.934291
vt 0.786304 0.934204
vt 0.192337 0.220621
vt 0.658973 0.934291
vt 0.843684 0.934204
vt 0.512879 0.030274
vt 0.143935 0.934988
vt 0.273406 0.133429
vt 0.771855 0.934291
vt 0.011027 0.934988
vt 0.254567 0.481727
vt 0.487887 0.934291
vt 0.423691 0.829584
vt 0.406804 0.544858
vt 0.317451 0.829584
vt 0.586577 0.573638
vt 0.145478 0.829584
vt 0.766645 0.598683
vt 0.014008 0.829584
vt 0.367218 0.857169
vt 0.891197 0.543275
vt 0.561764 0.857169
vt 0.994057 0.423863
vt 0.794738 0.857169
vt 0.963400 0.150769
vt 0.972472 0.857169
vt 0.474831 0.934988
vt 0.730067 0.058083
vt 0.282622 0.934988
vt 0.181764 0.334118
vt 0.601593 0.989988
vt 0.786304 0.989901
vt 0.192337 0.220621
vt 0.658973 0.989988
vt 0.843684 0.989901
vt 0.512879 0.030274
vt 0.143935 0.990684
vt 0.273406 0.133429
vt 0.771855 0.989988
vt 0.011027 0.990684
vt 0.254567 0.481727
vt 0.487887 0.989988
vt 0.423691 0.885281
vt 0.406804 0.544858
vt 0.317451 0.885281
vt 0.586577 0.573638
vt 0.145478 0.885281
vt 0.766646 0.598683
vt 0.014008 0.885281
vt 0.367218 0.762549
vt 0.891197 0.543275
vt 0.561764 0.762549
vt 0.994057 0.423863
vt 0.794738 0.762549
vt 0.963400 0.150769
vt 0.972472 0.762549
vt 0.474831 0.990684
vt 0.730067 0.058083
vt 0.282622 0.990684
s 0
usemtl Material.001
f 5/12/1 6/15/1 7/17/1 8/19/1 9/22/1 10/24/1 11/26/1 12/29/1 3/7/1 4/9/1 2/4/1 1/1/1
f 17/42/2 13/31/2 14/34/2 16/39/2 15/37/2 24/59/2 23/56/2 22/54/2 21/52/2 20/49/2 19/47/2 18/45/2
f 4/10/3 16/40/3 14/35/3 2/5/3
f 10/25/4 22/55/4 23/57/4 11/27/4
f 7/18/5 19/48/5 20/50/5 8/20/5
f 3/8/6 15/38/6 16/41/6 4/11/6
f 11/28/7 23/58/7 24/60/7 12/30/7
f 1/2/8 13/32/8 17/43/8 5/13/8
f 8/21/9 20/51/9 21/53/9 9/23/9
f 5/14/10 17/44/10 18/46/10 6/16/10
f 12/30/11 24/60/11 15/38/11 3/8/11
f 2/6/12 14/36/12 13/33/12 1/3/12
f 9/23/13 21/53/13 22/55/13 10/25/13
f 6/16/14 18/46/14 19/48/14 7/18/14
