# Blender 3.5.1
# www.blender.org
mtllib CrackedEgg.mtl
o Plane
v 0.000000 0.000000 -0.400000
v 1.000000 0.000000 1.000000
v 0.300000 0.000000 -0.500000
v 0.800000 0.000000 -0.600000
v -0.200000 0.000000 -0.600000
v -0.500000 0.000000 -0.400000
v -0.700000 0.000000 -0.500000
v -1.200000 0.000000 -0.200000
v -1.200000 0.000000 0.600000
v -0.700000 0.000000 1.200000
v 0.000000 0.000000 1.500000
v 0.500000 0.000000 1.500000
v 1.100000 0.000000 0.100000
v 0.000000 0.200000 -0.400000
v 1.000000 0.200000 1.000000
v 0.300000 0.200000 -0.500000
v 0.800000 0.200000 -0.600000
v -0.200000 0.200000 -0.600000
v -0.500000 0.200000 -0.400000
v -0.700000 0.200000 -0.500000
v -1.200000 0.200000 -0.200000
v -1.200000 0.200000 0.600000
v -0.700000 0.200000 1.200000
v 0.000000 0.200000 1.500000
v 0.500000 0.200000 1.500000
v 1.100000 0.200000 0.100000
vn -0.0000 -1.0000 -0.0000
vn -0.0000 1.0000 -0.0000
vn -0.3939 -0.0000 0.9191
vn 0.9191 -0.0000 -0.3939
vn -0.0000 -0.0000 1.0000
vn -0.1961 -0.0000 -0.9806
vn 0.7071 -0.0000 0.7071
vn -0.5547 -0.0000 -0.8321
vn 0.9939 -0.0000 0.1104
vn 0.4472 -0.0000 -0.8944
vn -0.5145 -0.0000 -0.8575
vn -1.0000 -0.0000 -0.0000
vn 0.7071 -0.0000 -0.7071
vn -0.7682 -0.0000 0.6402
vn -0.3162 -0.0000 -0.9487
vt 0.673205 0.514865
vt 0.801381 0.836925
vt 0.787244 0.836925
vt 0.929663 0.124573
vt 0.127469 0.935025
vt 0.750143 0.540511
vt 0.696501 0.836925
vt 0.878372 0.566157
vt 0.591942 0.935025
vt 0.552954 0.836925
vt 0.621913 0.566157
vt 0.615454 0.932125
vt 0.866831 0.836925
vt 0.544976 0.514865
vt 0.717736 0.932125
vt 0.446809 0.524886
vt 0.759000 0.932125
vt 0.287330 0.463573
vt 0.925624 0.932125
vt 0.006079 0.765162
vt 0.271705 0.305281
vt 0.236582 0.765162
vt 0.006079 0.839825
vt 0.399934 0.104531
vt 0.181961 0.839825
vt 0.579455 0.058844
vt 0.396912 0.839825
vt 0.707684 0.058844
vt 0.538034 0.839825
vt 0.006079 0.935025
vt 0.970934 0.386635
vt 0.379760 0.935025
vt 0.673205 0.514865
vt 0.801381 0.894550
vt 0.787244 0.894550
vt 0.929664 0.124573
vt 0.127469 0.992650
vt 0.750143 0.540511
vt 0.696500 0.894550
vt 0.878372 0.566157
vt 0.591942 0.992650
vt 0.552954 0.894550
vt 0.621913 0.566157
vt 0.615454 0.989750
vt 0.866831 0.894550
vt 0.544976 0.514865
vt 0.717736 0.989750
vt 0.446809 0.524886
vt 0.759000 0.989750
vt 0.287330 0.463573
vt 0.925624 0.989750
vt 0.006079 0.822788
vt 0.271705 0.305281
vt 0.236582 0.822788
vt 0.006079 0.897450
vt 0.399934 0.104531
vt 0.181961 0.897450
vt 0.579455 0.058844
vt 0.396912 0.897450
vt 0.707684 0.058844
vt 0.538034 0.897450
vt 0.006079 0.992650
vt 0.970934 0.386635
vt 0.379760 0.992650
s 0
usemtl Material.001
f 1/1/1 3/6/1 4/8/1 13/31/1 2/4/1 12/28/1 11/26/1 10/24/1 9/21/1 8/18/1 7/16/1 6/14/1 5/11/1
f 14/33/2 18/43/2 19/46/2 20/48/2 21/50/2 22/53/2 23/56/2 24/58/2 25/60/2 15/36/2 26/63/2 17/40/2 16/38/2
f 11/27/3 24/59/3 23/57/3 10/25/3
f 4/9/4 17/41/4 26/64/4 13/32/4
f 12/29/5 25/61/5 24/59/5 11/27/5
f 3/7/6 16/39/6 17/42/6 4/10/6
f 2/5/7 15/37/7 25/62/7 12/30/7
f 6/15/8 19/47/8 18/44/8 5/12/8
f 13/32/9 26/64/9 15/37/9 2/5/9
f 7/17/10 20/49/10 19/47/10 6/15/10
f 8/19/11 21/51/11 20/49/11 7/17/11
f 9/22/12 22/54/12 21/52/12 8/20/12
f 5/13/13 18/45/13 14/34/13 1/2/13
f 10/25/14 23/57/14 22/55/14 9/23/14
f 1/3/15 14/35/15 16/39/15 3/7/15
