# Blender 3.5.1
# www.blender.org
mtllib Egg.mtl
o Plane
v 0.715000 0.000000 -0.165000
v 0.465000 0.000000 -0.665000
v -0.235000 0.000000 -0.715000
v 0.065000 0.000000 -0.765000
v 0.565000 0.000000 0.435000
v 0.315000 0.000000 0.785000
v -0.185000 0.000000 0.835000
v -0.435000 0.000000 0.535000
v -0.535000 0.000000 0.085000
v -0.485000 0.000000 -0.465000
v 0.715000 0.150000 -0.165000
v 0.465000 0.150000 -0.665000
v -0.235000 0.150000 -0.715000
v 0.065000 0.150000 -0.765000
v 0.565000 0.150000 0.435000
v 0.315000 0.150000 0.785000
v -0.185000 0.150000 0.835000
v -0.435000 0.150000 0.535000
v -0.535000 0.150000 0.085000
v -0.485000 0.150000 -0.465000
vn -0.0000 -1.0000 -0.0000
vn -0.0000 1.0000 -0.0000
vn 0.9701 -0.0000 0.2425
vn -0.9762 -0.0000 0.2169
vn 0.8137 -0.0000 0.5812
vn 0.8944 -0.0000 -0.4472
vn -0.9959 -0.0000 -0.0905
vn 0.0995 -0.0000 0.9950
vn 0.2425 -0.0000 -0.9701
vn -0.7071 -0.0000 -0.7071
vn -0.7682 -0.0000 0.6402
vn -0.1644 -0.0000 -0.9864
vt 0.270708 0.274862
vt 0.489357 0.861508
vt 0.430052 0.070575
vt 0.615454 0.861508
vt 0.026329 0.938711
vt 0.888151 0.107662
vt 0.279674 0.938711
vt 0.650682 0.043337
vt 0.172127 0.938711
vt 0.322188 0.537517
vt 0.269900 0.861508
vt 0.439858 0.681430
vt 0.117277 0.861508
vt 0.707065 0.706663
vt 0.025171 0.861508
vt 0.494366 0.845422
vt 0.856603 0.619232
vt 0.357298 0.845422
vt 0.948223 0.461760
vt 0.195497 0.845422
vt 0.932598 0.193148
vt 0.025171 0.845422
vt 0.366294 0.938711
vt 0.270708 0.274862
vt 0.489357 0.897626
vt 0.430052 0.070575
vt 0.615454 0.897626
vt 0.026329 0.974829
vt 0.888151 0.107662
vt 0.279674 0.974829
vt 0.650682 0.043337
vt 0.172127 0.974829
vt 0.322188 0.537517
vt 0.269900 0.897626
vt 0.439858 0.681431
vt 0.117277 0.897626
vt 0.707065 0.706663
vt 0.025171 0.897626
vt 0.494366 0.881540
vt 0.856603 0.619232
vt 0.357298 0.881540
vt 0.948223 0.461760
vt 0.195497 0.881540
vt 0.932598 0.193148
vt 0.025171 0.881540
vt 0.366294 0.974829
s 0
usemtl Material.001
f 5/10/1 6/12/1 7/14/1 8/17/1 9/19/1 10/21/1 3/6/1 4/8/1 2/3/1 1/1/1
f 15/33/2 11/24/2 12/26/2 14/31/2 13/29/2 20/44/2 19/42/2 18/40/2 17/37/2 16/35/2
f 1/2/3 11/25/3 15/34/3 5/11/3
f 8/18/4 18/41/4 19/43/4 9/20/4
f 5/11/5 15/34/5 16/36/5 6/13/5
f 2/4/6 12/27/6 11/25/6 1/2/6
f 9/20/7 19/43/7 20/45/7 10/22/7
f 6/13/8 16/36/8 17/38/8 7/15/8
f 4/9/9 14/32/9 12/28/9 2/5/9
f 10/23/10 20/46/10 13/30/10 3/7/10
f 7/16/11 17/39/11 18/41/11 8/18/11
f 3/7/12 13/30/12 14/32/12 4/9/12
