# Blender 3.5.1
# www.blender.org
mtllib LettuceLeaf.mtl
o Plane
v 0.000000 0.000000 -0.800000
v -1.000000 0.000000 -1.000000
v -0.430000 0.000000 -0.990000
v 0.300000 0.000000 -1.000000
v 0.900000 0.000000 -0.600000
v 1.400000 0.000000 -0.500000
v 1.600000 0.000000 -0.000000
v 1.600000 0.000000 0.400000
v 1.300000 0.000000 0.400000
v 1.150000 0.000000 0.680000
v 0.720000 0.000000 0.880000
v 0.390000 0.000000 0.850000
v 0.180000 0.000000 0.950000
v -0.230000 0.000000 0.840000
v -0.900000 0.000000 1.100000
v -1.500000 0.000000 0.500000
v -1.400000 0.000000 0.400000
v -1.600000 0.000000 0.100000
v -1.500000 0.000000 -0.100000
v -1.600000 0.000000 -0.400000
v -0.715000 0.000000 -0.895000
v 0.000000 0.300000 -0.800000
v -1.000000 0.300000 -1.000000
v -0.430000 0.300000 -0.990000
v 0.300000 0.300000 -1.000000
v 0.900000 0.300000 -0.600000
v 1.400000 0.300000 -0.500000
v 1.600000 0.300000 -0.000000
v 1.600000 0.300000 0.400000
v 1.300000 0.300000 0.400000
v 1.150000 0.300000 0.680000
v 0.720000 0.300000 0.880000
v 0.390000 0.300000 0.850000
v 0.180000 0.300000 0.950000
v -0.230000 0.300000 0.840000
v -0.900000 0.300000 1.100000
v -1.500000 0.300000 0.500000
v -1.400000 0.300000 0.400000
v -1.600000 0.300000 0.100000
v -1.500000 0.300000 -0.100000
v -1.600000 0.300000 -0.400000
v -0.715000 0.300000 -0.895000
vn -0.0000 -1.0000 -0.0000
vn -0.0000 1.0000 -0.0000
vn 0.4217 -0.0000 0.9067
vn -0.5547 -0.0000 -0.8321
vn -0.8944 -0.0000 -0.4472
vn -0.0905 -0.0000 0.9959
vn 0.5547 -0.0000 -0.8321
vn -0.9487 -0.0000 0.3162
vn 0.4299 -0.0000 0.9029
vn 0.1961 -0.0000 -0.9806
vn -0.7071 -0.0000 -0.7071
vn -0.2591 -0.0000 0.9658
vn 0.9285 -0.0000 -0.3714
vn -0.3162 -0.0000 -0.9487
vn 0.3618 -0.0000 0.9323
vn 1.0000 -0.0000 -0.0000
vn -0.7071 -0.0000 0.7071
vn -0.0000 -0.0000 1.0000
vn 0.4042 -0.0000 -0.9147
vn 0.8815 -0.0000 0.4722
vn 0.3457 -0.0000 -0.9383
vn -0.8321 -0.0000 0.5547
vt 0.513391 0.489583
vt 0.508647 0.831736
vt 0.825804 0.931132
vt 0.264826 0.539445
vt 0.488202 0.988194
vt 0.642820 0.931611
vt 0.407736 0.531897
vt 0.643989 0.893645
vt 0.914439 0.931132
vt 0.591030 0.526807
vt 0.442401 0.831736
vt 0.237220 0.932090
vt 0.736862 0.440693
vt 0.103905 0.932090
vt 0.861145 0.415762
vt 0.009484 0.932090
vt 0.164946 0.832215
vt 0.905427 0.313467
vt 0.082659 0.832215
vt 0.900704 0.233185
vt 0.009484 0.832215
vt 0.302498 0.892030
vt 0.825426 0.236102
vt 0.350940 0.892030
vt 0.288907 0.832215
vt 0.784482 0.181363
vt 0.230797 0.832215
vt 0.674223 0.145403
vt 0.174466 0.832215
vt 0.922992 1.002573
vt 0.591771 0.154632
vt 0.981510 1.002573
vt 0.895443 0.893761
vt 0.537896 0.136603
vt 0.930642 0.893761
vt 0.314507 0.932090
vt 0.436316 0.162666
vt 0.246740 0.932090
vt 0.576049 0.931611
vt 0.265126 0.116997
vt 0.497722 0.931611
vt 0.816284 0.931132
vt 0.121654 0.243252
vt 0.656359 0.931132
vt 0.595767 0.838041
vt 0.147927 0.262350
vt 0.629360 0.838041
vt 0.432881 0.831736
vt 0.101284 0.324505
vt 0.653215 0.874949
vt 0.365734 0.831736
vt 0.128738 0.363674
vt 0.704119 0.874949
vt 0.512230 0.891421
vt 0.107187 0.424857
vt 0.580688 0.891421
vt 0.328234 0.988194
vt 0.335100 0.515601
vt 0.581137 0.893645
vt 0.585569 0.931611
vt 0.513625 0.488946
vt 0.508647 0.888320
vt 0.825804 0.987715
vt 0.265061 0.538808
vt 0.488202 0.931611
vt 0.642820 0.988194
vt 0.407971 0.531260
vt 0.643989 0.848738
vt 0.914439 0.987715
vt 0.591264 0.526170
vt 0.442401 0.888320
vt 0.237220 0.988673
vt 0.737097 0.440056
vt 0.103905 0.988673
vt 0.861379 0.415125
vt 0.009484 0.988673
vt 0.164946 0.888799
vt 0.905661 0.312829
vt 0.082659 0.888799
vt 0.900939 0.232548
vt 0.009484 0.888799
vt 0.302498 0.847122
vt 0.825661 0.235465
vt 0.350940 0.847122
vt 0.288907 0.888799
vt 0.784717 0.180726
vt 0.230797 0.888799
vt 0.674457 0.144766
vt 0.174466 0.888799
vt 0.922992 0.957665
vt 0.592006 0.153995
vt 0.981510 0.957665
vt 0.895443 0.848853
vt 0.538131 0.135966
vt 0.930642 0.848853
vt 0.314507 0.988673
vt 0.436550 0.162029
vt 0.246740 0.988673
vt 0.576049 0.988194
vt 0.265361 0.116360
vt 0.497722 0.988194
vt 0.816284 0.987715
vt 0.121889 0.242614
vt 0.656359 0.987715
vt 0.595767 0.793133
vt 0.148162 0.261713
vt 0.629360 0.793133
vt 0.432881 0.888320
vt 0.101519 0.323868
vt 0.653215 0.830042
vt 0.365734 0.888320
vt 0.128973 0.363036
vt 0.704119 0.830042
vt 0.512230 0.846513
vt 0.107422 0.424219
vt 0.580688 0.846513
vt 0.328234 0.931611
vt 0.335335 0.514964
vt 0.581137 0.848738
vt 0.585569 0.988194
s 0
usemtl Material.001
f 1/1/1 4/10/1 5/13/1 6/15/1 7/18/1 8/20/1 9/23/1 10/26/1 11/28/1 12/31/1 13/34/1 14/37/1 15/40/1 16/43/1 17/46/1 18/49/1 19/52/1 20/55/1 2/4/1 21/58/1 3/7/1
f 22/61/2 24/67/2 42/118/2 23/64/2 41/115/2 40/112/2 39/109/2 38/106/2 37/103/2 36/100/2 35/97/2 34/94/2 33/91/2 32/88/2 31/86/2 30/83/2 29/80/2 28/78/2 27/75/2 26/73/2 25/70/2
f 10/27/3 31/87/3 32/89/3 11/29/3
f 1/2/4 22/62/4 25/71/4 4/11/4
f 18/50/5 39/110/5 40/113/5 19/53/5
f 11/30/6 32/90/6 33/92/6 12/32/6
f 4/12/7 25/72/7 26/74/7 5/14/7
f 19/54/8 40/114/8 41/116/8 20/56/8
f 12/33/9 33/93/9 34/95/9 13/35/9
f 5/14/10 26/74/10 27/76/10 6/16/10
f 20/57/11 41/117/11 23/65/11 2/5/11
f 13/36/12 34/96/12 35/98/12 14/38/12
f 6/17/13 27/77/13 28/79/13 7/19/13
f 21/59/14 42/119/14 24/68/14 3/8/14
f 14/39/15 35/99/15 36/101/15 15/41/15
f 7/19/16 28/79/16 29/81/16 8/21/16
f 15/42/17 36/102/17 37/104/17 16/44/17
f 8/22/18 29/82/18 30/84/18 9/24/18
f 3/9/19 24/69/19 22/63/19 1/3/19
f 16/45/11 37/105/11 38/107/11 17/47/11
f 9/25/20 30/85/20 31/87/20 10/27/20
f 2/6/21 23/66/21 42/120/21 21/60/21
f 17/48/22 38/108/22 39/111/22 18/51/22
