# Blender 3.5.1
# www.blender.org
mtllib Pan.mtl
o Cylinder
v 0.000000 0.000000 -1.000000
v -0.000000 0.500000 -1.081874
v 0.707107 0.000000 -0.707107
v 0.765000 0.500000 -0.765000
v 1.000000 0.000000 0.000000
v 1.081874 0.500000 -0.000000
v 0.707107 0.000000 0.707107
v 0.765000 0.500000 0.765000
v 0.000000 0.000000 1.000000
v -0.000000 0.500000 1.081874
v -0.707107 0.000000 0.707107
v -0.765000 0.500000 0.765000
v -1.000000 0.000000 0.000000
v -1.081874 0.500000 -0.000000
v -0.707107 0.000000 -0.707107
v -0.765000 0.500000 -0.765000
v 0.848528 0.500000 -0.848528
v -0.000000 0.500000 -1.200000
v 1.200000 0.500000 0.000000
v 0.848528 0.500000 0.848528
v -0.000000 0.500000 1.200000
v -0.848528 0.500000 0.848528
v -1.200000 0.500000 0.000000
v -0.848528 0.500000 -0.848528
v 0.556364 0.100000 -0.556364
v -0.000000 0.100000 -0.786817
v 0.786817 0.100000 0.000000
v 0.556364 0.100000 0.556364
v -0.000000 0.100000 0.786817
v -0.556364 0.100000 0.556364
v -0.786817 0.100000 0.000000
v -0.556364 0.100000 -0.556364
v -0.150000 0.300000 2.470000
v -0.150000 0.500000 2.470000
v -0.075000 0.350000 1.070000
v -0.075000 0.450000 1.070000
v 0.150000 0.300000 2.470000
v 0.150000 0.500000 2.470000
v 0.075000 0.350000 1.070000
v 0.075000 0.450000 1.070000
vn -0.0000 -0.3714 -0.9285
vn 0.6565 -0.3714 -0.6565
vn 0.9285 -0.3714 -0.0000
vn 0.6565 -0.3714 0.6565
vn -0.0000 -0.3714 0.9285
vn -0.6565 -0.3714 0.6565
vn -0.9285 -0.3714 -0.0000
vn -0.5690 0.5936 -0.5690
vn -0.8047 0.5936 -0.0000
vn -0.6565 -0.3714 -0.6565
vn -0.0000 -1.0000 -0.0000
vn -0.0000 1.0000 -0.0000
vn -0.5690 0.5936 0.5690
vn -0.0000 0.5936 0.8047
vn 0.5690 0.5936 0.5690
vn 0.8047 0.5936 -0.0000
vn 0.5690 0.5936 -0.5690
vn -0.0000 0.5936 -0.8047
vn -0.9986 -0.0000 -0.0535
vn -0.0000 -0.0000 -1.0000
vn 0.9986 -0.0000 -0.0535
vn -0.0000 -0.0000 1.0000
vn -0.0000 -0.9994 -0.0357
vn -0.0000 0.9994 -0.0357
vt 0.235888 0.634568
vt 0.841336 0.270414
vt 0.022589 0.143777
vt 0.906572 0.158340
vt 0.250793 0.488211
vt 0.885261 0.704442
vt 0.729335 0.382441
vt 0.022589 0.315163
vt 0.922697 0.000000
vt 0.966620 0.699082
vt 0.870349 0.556996
vt 0.570940 0.382459
vt 0.143776 0.436351
vt 0.950487 0.541977
vt 0.885261 0.411780
vt 0.125396 0.780926
vt 0.458938 0.270457
vt 0.966620 0.382459
vt 0.315161 0.436351
vt 0.457560 0.775620
vt 0.110491 0.634568
vt 0.458938 0.112045
vt 0.436349 0.315163
vt 0.441434 0.617280
vt 0.125396 0.488211
vt 0.376199 0.780812
vt 0.570940 0.000018
vt 0.436350 0.143777
vt 0.540297 1.000000
vt 0.457560 0.458940
vt 0.361286 0.635596
vt 0.729335 0.000000
vt 0.315163 0.022589
vt 0.524164 0.840482
vt 0.376199 0.488150
vt 0.250793 0.780926
vt 0.841336 0.112002
vt 0.143778 0.022589
vt 0.922697 0.316680
vt 0.540297 0.683377
vt 0.143283 0.458940
vt 0.777750 0.733653
vt 0.000000 0.324519
vt 0.125396 0.634568
vt 0.000001 0.134420
vt 0.759856 0.556718
vt 0.134419 0.458940
vt 0.777750 0.382459
vt 0.017886 0.810197
vt 0.324517 0.458940
vt 0.000000 0.634568
vt 0.458937 0.324519
vt 0.017886 0.458940
vt 0.268688 0.810134
vt 0.458938 0.134420
vt 0.250793 0.635875
vt 0.324519 0.000000
vt 0.268688 0.458940
vt 0.143283 0.810197
vt 0.134421 0.000000
vt 0.759856 0.470596
vt 0.853064 0.043184
vt 0.896994 0.654725
vt 0.759855 0.595240
vt 0.841336 0.158340
vt 0.671719 0.382459
vt 0.885261 0.540467
vt 0.896994 0.424454
vt 0.547076 0.382459
vt 0.387926 0.732436
vt 0.458939 0.470596
vt 0.376199 0.617280
vt 0.458938 0.595240
vt 0.470672 0.958005
vt 0.387926 0.502123
vt 0.547074 0.683377
vt 0.458938 0.841992
vt 0.671718 0.683377
vt 0.853064 0.273497
vt 0.470672 0.727734
vt 0.704610 0.973398
vt 0.744736 0.683377
vt 0.602392 0.683377
vt 0.664486 0.973398
vt 0.704610 0.683377
vt 0.664486 0.973185
vt 0.697001 0.683377
vt 0.724673 0.776518
vt 0.586868 0.973288
vt 0.676939 0.683377
vt 0.704610 0.776518
vt 0.648962 0.683377
vt 0.922697 0.290021
vt 0.744736 0.745471
vt 0.540297 0.683377
vt 0.962822 0.290021
vt 0.704610 0.745471
vt 0.602392 0.973185
vt 0.724673 0.745471
vt 0.930307 0.000000
vt 0.555821 0.973288
vt 0.704610 0.745471
vt 0.950369 0.000000
vt 0.617915 0.683377
s 1
f 1/1/1 18/44/1 17/41/2 3/5/2
f 3/6/2 17/42/2 19/46/3 5/11/3
f 5/11/3 19/46/3 20/48/4 7/15/4
f 7/16/4 20/49/4 21/51/5 9/21/5
f 9/21/5 21/51/5 22/53/6 11/25/6
f 11/26/6 22/54/6 23/56/7 13/31/7
f 8/18/8 6/14/9 27/67/9 28/68/8
f 13/31/7 23/56/7 24/58/10 15/35/10
f 15/36/10 24/59/10 18/44/1 1/1/1
f 1/2/11 3/7/11 5/12/11 7/17/11 9/22/11 11/27/11 13/32/11 15/37/11
f 2/3/12 4/8/12 17/43/12 18/45/12
f 4/8/12 6/13/12 19/47/12 17/43/12
f 6/13/12 8/19/12 20/50/12 19/47/12
f 8/19/12 10/23/12 21/52/12 20/50/12
f 10/23/12 12/28/12 22/55/12 21/52/12
f 12/28/12 14/33/12 23/57/12 22/55/12
f 14/33/12 16/38/12 24/60/12 23/57/12
f 16/38/12 2/3/12 18/45/12 24/60/12
f 25/61/12 26/64/12 32/78/12 31/76/12 30/73/12 29/71/12 28/69/12 27/66/12
f 4/9/13 2/4/14 26/65/14 25/62/13
f 2/4/14 16/39/15 32/79/15 26/65/14
f 14/34/16 12/29/17 30/74/17 31/77/16
f 10/24/18 8/20/8 28/70/8 29/72/18
f 6/14/9 4/10/13 25/63/13 27/67/9
f 16/40/15 14/34/16 31/77/16 32/80/15
f 12/30/17 10/24/18 29/72/18 30/75/17
s 0
f 33/81/19 34/84/19 36/90/19 35/87/19
f 35/88/20 36/91/20 40/102/20 39/99/20
f 39/100/21 40/103/21 38/96/21 37/93/21
f 37/94/22 38/97/22 34/85/22 33/82/22
f 35/89/23 39/101/23 37/95/23 33/83/23
f 40/104/24 36/92/24 34/86/24 38/98/24
