# Blender 3.5.1
# www.blender.org
mtllib TomatoSlice.mtl
o Plane
v 1.100000 -0.150000 -0.360000
v 0.500000 -0.150000 -0.660000
v 1.100000 0.150000 -0.360000
v 0.100000 -0.150000 -1.060000
v 1.100000 -0.150000 0.340000
v 0.700000 -0.150000 1.040000
v -0.300000 -0.150000 1.140000
v -1.100000 -0.150000 0.740000
v -1.300000 -0.150000 0.140000
v -1.200000 -0.150000 -0.560000
v -0.500000 -0.150000 -1.060000
v 0.500000 0.150000 -0.660000
v 0.100000 0.150000 -1.060000
v 1.100000 0.150000 0.340000
v 0.700000 0.150000 1.040000
v -0.300000 0.150000 1.140000
v -1.100000 0.150000 0.740000
v -1.300000 0.150000 0.140000
v -1.200000 0.150000 -0.560000
v -0.500000 0.150000 -1.060000
vn -0.0000 -1.0000 -0.0000
vn -0.0000 1.0000 -0.0000
vn 0.4472 -0.0000 -0.8944
vn -0.9899 -0.0000 -0.1414
vn 0.0995 -0.0000 0.9950
vn 0.7071 -0.0000 -0.7071
vn -0.5812 -0.0000 -0.8137
vn -0.4472 -0.0000 0.8944
vn -0.0000 -0.0000 -1.0000
vn 1.0000 -0.0000 -0.0000
vn -0.9487 -0.0000 0.3162
vn 0.8682 -0.0000 0.4961
vt 0.566975 0.563774
vt 0.715992 0.916717
vt 0.656272 0.489620
vt 0.844879 0.916717
vt 0.030073 0.918805
vt 0.818306 0.429246
vt 0.715992 0.975996
vt 0.782875 0.443310
vt 0.160288 0.918805
vt 0.373890 0.532001
vt 0.576272 0.916717
vt 0.261806 0.411210
vt 0.366544 0.758379
vt 0.467573 0.916717
vt 0.277127 0.205327
vt 0.209575 0.758379
vt 0.437856 0.132498
vt 0.030073 0.758379
vt 0.389448 0.815569
vt 0.593635 0.136427
vt 0.553012 0.815569
vt 0.746938 0.186547
vt 0.688378 0.815569
vt 0.449139 0.918805
vt 0.834064 0.333218
vt 0.299976 0.918805
vt 0.664838 0.478012
vt 0.844879 0.975996
vt 0.030073 0.978084
vt 0.558449 0.549505
vt 0.160288 0.978084
vt 0.832575 0.292808
vt 0.576272 0.975996
vt 0.716861 0.162498
vt 0.366544 0.817658
vt 0.467573 0.975996
vt 0.505060 0.127878
vt 0.209575 0.817658
vt 0.300436 0.179252
vt 0.030073 0.817658
vt 0.389448 0.756291
vt 0.257608 0.292962
vt 0.553012 0.756291
vt 0.267897 0.431018
vt 0.688378 0.756291
vt 0.449139 0.978084
vt 0.411097 0.539798
vt 0.299976 0.978084
s 0
usemtl Material.001
f 5/10/1 6/12/1 7/15/1 8/17/1 9/20/1 10/22/1 11/25/1 4/8/1 2/3/1 1/1/1
f 14/32/2 3/6/2 12/27/2 13/30/2 20/47/2 19/44/2 18/42/2 17/39/2 16/37/2 15/34/2
f 2/4/3 12/28/3 3/7/3 1/2/3
f 9/21/4 18/43/4 19/45/4 10/23/4
f 6/13/5 15/35/5 16/38/5 7/16/5
f 4/9/6 13/31/6 12/29/6 2/5/6
f 10/24/7 19/46/7 20/48/7 11/26/7
f 7/16/8 16/38/8 17/40/8 8/18/8
f 11/26/9 20/48/9 13/31/9 4/9/9
f 1/2/10 3/7/10 14/33/10 5/11/10
f 8/19/11 17/41/11 18/43/11 9/21/11
f 5/11/12 14/33/12 15/36/12 6/14/12
